<svg width="76" height="76" viewBox="0 0 76 76" fill="none" xmlns="http://www.w3.org/2000/svg">
<g clip-path="url(#clip0_127_1790)">
<path d="M76.0001 28.2903V71.2693H18.208C17.24 71.2693 16.457 70.4848 16.457 69.5183V22.3694C16.457 21.4014 17.24 20.6184 18.208 20.6184H39.4421C39.9054 20.6184 40.3504 20.8019 40.6792 21.1307L45.5756 26.027C45.9044 26.3558 46.3494 26.5393 46.8141 26.5393H74.2491C75.2156 26.5394 76.0001 27.3239 76.0001 28.2903Z" fill="#756F6F"/>
<path d="M48.1033 35.0762C50.4606 35.0762 52.3716 33.1652 52.3716 30.8079C52.3716 28.4505 50.4606 26.5396 48.1033 26.5396C45.746 26.5396 43.835 28.4505 43.835 30.8079C43.835 33.1652 45.746 35.0762 48.1033 35.0762Z" fill="#5B5555"/>
<path d="M32.4353 40.8831C33.206 41.6523 32.6617 42.9704 31.5714 42.9704H18.0933C17.5412 42.9704 16.9953 42.9428 16.457 42.8909V22.3694C16.457 21.4014 17.24 20.6184 18.208 20.6184H33.4248C34.1343 22.4549 34.5243 24.4521 34.5243 26.5394C34.5243 31.0766 32.6847 35.1838 29.7119 38.1581L32.4353 40.8831Z" fill="#5B5555"/>
<path d="M75.9995 28.2903V71.2693H70.1855V28.2903C70.1855 27.3238 69.4025 26.5393 68.4346 26.5393H74.2484C75.215 26.5395 75.9995 27.3239 75.9995 28.2903Z" fill="#5B5555"/>
<path d="M58.1429 49.3134L76.0001 71.2697H17.289C16.7621 71.2697 16.2633 71.0323 15.9308 70.6235L0.395817 51.5226C-0.534589 50.3786 0.279442 48.6672 1.75402 48.6672H56.7845C57.3116 48.6672 57.8105 48.9046 58.1429 49.3134Z" fill="#12CDD9"/>
<path d="M76.0005 71.2692H68.4709L50.6147 49.3134C50.2814 48.905 49.7829 48.6665 49.2568 48.6665H56.785C57.3125 48.6665 57.811 48.905 58.1429 49.3134L76.0005 71.2692Z" fill="#12CDD9"/>
<path d="M62.7036 66.1195H47.2561C46.7786 66.1195 46.3286 65.8964 46.0393 65.5164L42.0804 60.3147C41.6973 59.8114 42.0564 59.0872 42.6889 59.0872H58.1363C58.6138 59.0872 59.0639 59.3103 59.3532 59.6903L63.312 64.892C63.6951 65.3952 63.3362 66.1195 62.7036 66.1195Z" fill="#F8F3F1"/>
<path d="M62.7039 66.1192H57.7341C58.3671 66.1192 58.7265 65.3958 58.3427 64.8913L54.3837 59.6907C54.0947 59.3099 53.645 59.0867 53.168 59.0867H58.1363C58.6149 59.0867 59.0645 59.3099 59.3535 59.6907L63.3125 64.8913C63.6947 65.396 63.337 66.1192 62.7039 66.1192Z" fill="#EFE2DD"/>
<path d="M37.9997 67.2661H30.9828C30.3494 67.2661 29.8359 66.7526 29.8359 66.1192C29.8359 65.4859 30.3494 64.9724 30.9828 64.9724H37.9997C38.6331 64.9724 39.1465 65.4859 39.1465 66.1192C39.1465 66.7526 38.6331 67.2661 37.9997 67.2661Z" fill="#F8F3F1"/>
<path d="M35.4397 63.4621H32.4613C31.8279 63.4621 31.3145 62.9487 31.3145 62.3153C31.3145 61.6819 31.8279 61.1685 32.4613 61.1685H35.4397C36.0731 61.1685 36.5865 61.6819 36.5865 62.3153C36.5867 62.9487 36.0732 63.4621 35.4397 63.4621Z" fill="#F8F3F1"/>
<path d="M34.5241 21.1615C34.5241 12.0869 27.1677 4.73047 18.0932 4.73047C9.02713 4.73047 1.66211 12.0955 1.66211 21.1616C1.66226 30.2362 9.01852 37.5925 18.0931 37.5925H31.5712C32.6609 37.5925 33.2067 36.2749 32.4362 35.5044L29.7116 32.7798C32.6851 29.8066 34.5241 25.6988 34.5241 21.1615Z" fill="#12CDD9"/>
<path d="M32.4358 35.5049C33.2065 36.2756 32.6622 37.5922 31.5719 37.5922H26.0301C27.1189 37.5922 27.6649 36.2756 26.894 35.5049L25.2045 33.8145C24.6425 33.2522 24.6069 32.3547 25.1193 31.7469C27.5296 28.888 28.9828 25.1937 28.9828 21.1612C28.9828 13.0322 23.0787 6.28078 15.3242 4.96414C16.0746 4.83545 16.842 4.75885 17.6229 4.73674C26.8119 4.47786 34.3693 11.6898 34.5222 20.8812C34.5996 25.529 32.7459 29.7459 29.7123 32.7797L32.4358 35.5049Z" fill="#05858D"/>
<path d="M21.3369 21.1615L24.3934 18.105C25.2892 17.2092 25.2892 15.7569 24.3934 14.8612C23.4977 13.9654 22.0452 13.9654 21.1496 14.8612L18.0931 17.9177L15.0368 14.8611C14.1411 13.9653 12.6886 13.9653 11.793 14.8611C10.8971 15.7567 10.8971 17.2091 11.793 18.1049L14.8494 21.1614L11.793 24.2178C10.8971 25.1137 10.8971 26.566 11.793 27.4616C12.2408 27.9096 12.8279 28.1335 13.4149 28.1335C14.002 28.1335 14.5889 27.9095 15.0369 27.4616L18.0934 24.4052L21.1499 27.4616C21.5979 27.9096 22.1846 28.1335 22.7718 28.1335C23.3588 28.1335 23.9458 27.9095 24.3938 27.4616C25.2896 26.566 25.2896 25.1137 24.3938 24.2178L21.3369 21.1615Z" fill="#F8F3F1"/>
<path d="M48.1033 31.4629C50.4606 31.4629 52.3716 29.5519 52.3716 27.1946C52.3716 24.8373 50.4606 22.9263 48.1033 22.9263C45.746 22.9263 43.835 24.8373 43.835 27.1946C43.835 29.5519 45.746 31.4629 48.1033 31.4629Z" fill="#FFB300"/>
<path d="M52.3715 27.1942C52.3715 29.5525 50.4599 31.464 48.1036 31.464C47.3136 31.464 46.5725 31.2494 45.9385 30.873C47.614 30.4867 48.8624 28.9868 48.8624 27.1942C48.8624 25.4036 47.616 23.9017 45.9404 23.5155C46.5744 23.141 47.3136 22.9265 48.1036 22.9265C50.46 22.9264 52.3715 24.8379 52.3715 27.1942Z" fill="#FF8700"/>
<path d="M63.0519 22.0768C64.9122 22.0768 66.4203 20.5687 66.4203 18.7084C66.4203 16.8481 64.9122 15.3401 63.0519 15.3401C61.1917 15.3401 59.6836 16.8481 59.6836 18.7084C59.6836 20.5687 61.1917 22.0768 63.0519 22.0768Z" fill="#FFB300"/>
<path d="M66.4203 18.7081C66.4203 20.5691 64.9119 22.0775 63.0524 22.0775C62.429 22.0775 61.8441 21.9082 61.3438 21.6111C62.666 21.3064 63.6511 20.1226 63.6511 18.7081C63.6511 17.295 62.6675 16.1099 61.3452 15.805C61.8455 15.5095 62.4288 15.3401 63.0523 15.3401C64.9119 15.3401 66.4203 16.8487 66.4203 18.7081Z" fill="#FF8700"/>
<path d="M55.3557 12.5518L55.9762 11.9314C56.4242 11.4834 56.4242 10.7574 55.9762 10.3094C55.5283 9.86154 54.8022 9.86154 54.3542 10.3094L53.7337 10.9298L53.1132 10.3094C52.6654 9.86139 51.9392 9.86139 51.4913 10.3094C51.0433 10.7572 51.0433 11.4834 51.4913 11.9314L52.1117 12.5518L51.4913 13.1723C51.0433 13.6203 51.0433 14.3463 51.4913 14.7943C51.7153 15.0183 52.0087 15.1302 52.3022 15.1302C52.5956 15.1302 52.8893 15.0181 53.1131 14.7943L53.7336 14.1738L54.354 14.7943C54.578 15.0183 54.8715 15.1302 55.165 15.1302C55.4584 15.1302 55.752 15.0181 55.9759 14.7943C56.4239 14.3464 56.4239 13.6203 55.9759 13.1723L55.3557 12.5518Z" fill="#12CDD9"/>
<path d="M8.58728 38.5886C8.13944 38.1407 7.41329 38.1407 6.9653 38.5886L5.88497 39.6689L4.80465 38.5886C4.35681 38.1407 3.63065 38.1407 3.18267 38.5886C2.73468 39.0364 2.73468 39.7626 3.18267 40.2105L4.263 41.2909L3.18267 42.3712C2.73468 42.819 2.73468 43.5452 3.18267 43.9932C3.40666 44.2172 3.70012 44.3291 3.99358 44.3291C4.28704 44.3291 4.58065 44.217 4.8045 43.9932L5.88483 42.9128L6.96515 43.9932C7.18915 44.2172 7.48261 44.3291 7.77607 44.3291C8.06953 44.3291 8.36314 44.217 8.58698 43.9932C9.03497 43.5453 9.03497 42.8192 8.58698 42.3712L7.50665 41.2909L8.58698 40.2105C9.03511 39.7626 9.03511 39.0364 8.58728 38.5886Z" fill="#A8E7EF"/>
</g>
<defs>
<clipPath id="clip0_127_1790">
<rect width="76" height="76" fill="white"/>
</clipPath>
</defs>
</svg>
